<svg id="visual" viewBox="0 0 960 540" width="960" height="540" xmlns="http://www.w3.org/2000/svg" xmlns:xlink="http://www.w3.org/1999/xlink" version="1.1"><rect width="960" height="540" fill="#931F1F"></rect><g><g transform="translate(531 437)"><path d="M82.2 -51.4C97.9 -20.3 95.9 17 79.3 45.9C62.7 74.7 31.3 95.2 0.1 95.1C-31.2 95.1 -62.3 74.5 -79.4 45.4C-96.4 16.3 -99.3 -21.4 -83.7 -52.4C-68.2 -83.4 -34.1 -107.8 -0.4 -107.5C33.3 -107.3 66.5 -82.5 82.2 -51.4Z" fill="none" stroke="#F7760E" stroke-width="20"></path></g><g transform="translate(243 183)"><path d="M33.7 -19.3C41.7 -5.5 45 11.2 38.6 22.6C32.2 34 16.1 40.2 0.5 39.9C-15.2 39.7 -30.3 33 -37.4 21.1C-44.6 9.3 -43.6 -7.7 -36 -21.2C-28.4 -34.7 -14.2 -44.8 -0.7 -44.4C12.8 -44 25.6 -33.1 33.7 -19.3Z" fill="none" stroke="#F7760E" stroke-width="20"></path></g><g transform="translate(957 76)"><path d="M41 -23.5C50.2 -7.7 52.7 12.1 44.8 27.8C36.8 43.5 18.4 55.1 -0.5 55.4C-19.5 55.7 -39 44.7 -48.5 28.1C-58.1 11.5 -57.7 -10.8 -47.9 -26.9C-38.2 -43 -19.1 -53 -1.6 -52.1C15.9 -51.1 31.7 -39.3 41 -23.5Z" stroke="#F7760E" fill="none" stroke-width="20"></path></g><g transform="translate(572 40)"><path d="M49.5 -27.1C59.4 -11.3 59.5 11.5 49.6 26.8C39.8 42 19.9 49.5 1.7 48.5C-16.4 47.5 -32.9 38 -42.1 23.2C-51.3 8.4 -53.2 -11.7 -45 -26.5C-36.8 -41.3 -18.4 -50.8 0.7 -51.2C19.8 -51.6 39.5 -42.9 49.5 -27.1Z" stroke="#F7760E" fill="none" stroke-width="20"></path></g><g transform="translate(75 417)"><path d="M41.9 -24.1C49.7 -10.7 48.3 8.2 39.8 23.6C31.2 39 15.6 50.9 -0.9 51.4C-17.4 51.9 -34.8 41.1 -42 26.5C-49.1 11.9 -45.9 -6.4 -37.2 -20.3C-28.5 -34.3 -14.2 -43.9 1.4 -44.7C17.1 -45.5 34.1 -37.5 41.9 -24.1Z" stroke="#F7760E" fill="none" stroke-width="20"></path></g><g transform="translate(948 491)"><path d="M92 -52.1C109.5 -22.7 107.4 19 88.8 48.6C70.2 78.2 35.1 95.6 -0.6 96C-36.3 96.3 -72.6 79.6 -87.6 52.1C-102.7 24.5 -96.5 -13.8 -78.3 -43.6C-60.2 -73.4 -30.1 -94.6 3.6 -96.7C37.2 -98.7 74.4 -81.6 92 -52.1Z" stroke="#F7760E" fill="none" stroke-width="20"></path></g><g transform="translate(14 32)"><path d="M67.7 -37.7C82.5 -13.4 85.7 19 72.5 45.2C59.3 71.3 29.7 91.3 1.6 90.4C-26.5 89.5 -53 67.7 -67.4 40.9C-81.7 14.1 -83.8 -17.7 -70.5 -41.1C-57.3 -64.5 -28.6 -79.4 -1.1 -78.8C26.4 -78.1 52.8 -61.9 67.7 -37.7Z" stroke="#F7760E" fill="none" stroke-width="20"></path></g><g transform="translate(750 243)"><path d="M67 -42C78.7 -18.4 74.4 11 60.6 35.5C46.7 60 23.4 79.5 -2.8 81.1C-28.9 82.7 -57.8 66.4 -69.6 43C-81.5 19.7 -76.3 -10.7 -61.9 -35.8C-47.4 -61 -23.7 -80.9 2 -82.1C27.7 -83.2 55.3 -65.6 67 -42Z" stroke="#F7760E" fill="none" stroke-width="20"></path></g></g></svg>